<?xml version="1.0" standalone="no"?>
<!DOCTYPE svg PUBLIC "-//W3C//DTD SVG 20010904//EN"
 "http://www.w3.org/TR/2001/REC-SVG-20010904/DTD/svg10.dtd">
<svg version="1.0" xmlns="http://www.w3.org/2000/svg"
 width="512.000000pt" height="512.000000pt" viewBox="0 0 512.000000 512.000000"
 preserveAspectRatio="xMidYMid meet">
<metadata>
Created by potrace 1.14, written by Peter Selinger 2001-2017
</metadata>
<g transform="translate(0.000000,512.000000) scale(0.100000,-0.100000)"
fill="#000000" stroke="none">
<path d="M4094 5110 c-71 -15 -122 -88 -107 -153 21 -93 71 -126 197 -129 47
-2 86 -6 86 -10 0 -5 10 -8 22 -8 43 0 179 -56 253 -105 64 -42 175 -169 191
-217 4 -10 10 -18 15 -18 5 0 8 -3 6 -8 -1 -4 5 -25 15 -47 20 -48 24 -63 40
-125 5 -19 11 -62 14 -95 8 -97 11 -112 30 -144 20 -34 73 -63 119 -66 32 -3
76 16 106 44 21 19 37 82 33 131 -6 85 -16 158 -25 195 -18 74 -62 195 -71
195 -4 0 -8 6 -8 13 0 18 -24 67 -32 67 -5 0 -8 5 -8 11 0 12 -54 92 -85 125
-11 12 -27 30 -36 40 -13 16 -87 82 -126 114 -76 61 -259 150 -309 150 -12 0
-25 4 -28 9 -6 9 -55 18 -144 27 -104 10 -117 10 -148 4z"/>
<path d="M1927 4894 c-3 -3 -13 -7 -24 -9 -10 -2 -19 -4 -20 -5 -2 -2 -6 -3
-10 -4 -16 -3 -73 -41 -73 -48 0 -4 -6 -8 -12 -8 -22 -1 -79 -86 -92 -137 -7
-27 -21 -65 -30 -84 -34 -73 -41 -162 -16 -236 9 -29 16 -53 14 -53 -1 0 -13
17 -25 38 -13 20 -28 42 -34 49 -29 35 -35 43 -35 48 0 4 -6 13 -12 20 -30 33
-38 45 -38 55 0 5 -6 10 -13 10 -8 0 -22 10 -33 21 -27 30 -101 60 -154 63
-79 4 -240 -80 -240 -126 0 -6 -3 -8 -6 -5 -8 8 -54 -84 -48 -95 2 -3 -9 -26
-25 -50 -36 -54 -52 -103 -52 -159 0 -50 3 -69 14 -86 5 -7 5 -18 2 -23 -3 -6
1 -13 9 -16 9 -3 16 -13 16 -20 0 -13 35 -71 51 -84 3 -3 11 -16 18 -30 11
-24 11 -24 -3 -6 -9 11 -16 16 -16 10 0 -5 -3 -5 -8 1 -18 25 -83 47 -139 47
-68 0 -75 -2 -128 -27 -39 -19 -76 -46 -99 -73 -6 -7 -16 -18 -21 -25 -17 -20
-44 -81 -49 -113 -3 -17 -13 -46 -23 -65 -22 -43 -27 -69 -26 -144 0 -74 5
-115 14 -115 4 0 10 -13 14 -29 3 -16 13 -35 21 -42 8 -6 14 -18 14 -25 0 -8
4 -14 9 -14 4 0 19 -20 32 -45 13 -25 27 -45 31 -45 5 0 8 -7 8 -15 0 -9 7
-18 15 -21 8 -4 13 -9 10 -13 -2 -4 7 -19 20 -33 13 -14 21 -29 18 -32 -4 -3
-2 -6 4 -6 6 0 13 -9 16 -20 5 -21 5 -21 -28 0 -59 36 -125 44 -198 22 -28 -8
-57 -21 -65 -28 -7 -8 -17 -14 -21 -14 -14 0 -80 -67 -99 -102 -45 -80 -37
-193 21 -286 52 -85 150 -227 159 -230 4 -2 8 -9 8 -16 0 -7 9 -22 20 -34 12
-12 17 -22 13 -22 -4 0 -3 -4 4 -8 14 -9 83 -109 83 -121 0 -5 7 -12 16 -15 8
-3 13 -10 10 -15 -4 -5 -2 -11 2 -13 12 -4 100 -130 123 -176 7 -12 15 -22 19
-22 4 0 13 -13 20 -30 7 -16 16 -30 21 -30 4 0 10 -8 13 -17 3 -10 17 -30 31
-45 14 -16 23 -28 20 -28 -4 0 7 -17 23 -38 16 -20 42 -57 57 -82 15 -25 31
-47 34 -50 3 -3 38 -52 76 -110 38 -58 72 -107 75 -110 3 -3 19 -26 35 -52 17
-27 33 -48 38 -48 4 0 7 -5 7 -10 0 -6 18 -35 40 -65 22 -30 40 -59 40 -65 0
-5 5 -10 10 -10 6 0 10 -7 10 -16 0 -8 4 -12 10 -9 5 3 10 -2 10 -12 0 -10 9
-25 20 -33 11 -8 20 -20 20 -26 0 -7 6 -19 13 -26 6 -7 30 -40 52 -73 22 -33
42 -62 45 -65 3 -3 23 -32 45 -65 42 -64 41 -63 80 -111 14 -18 25 -35 25 -38
0 -3 8 -14 18 -25 9 -10 27 -31 39 -47 47 -63 191 -202 268 -259 22 -17 42
-32 45 -35 3 -3 14 -11 25 -18 11 -6 40 -26 65 -42 25 -16 51 -30 58 -30 6 0
12 -4 12 -8 0 -5 16 -14 35 -22 19 -8 35 -18 35 -22 0 -5 4 -7 9 -4 5 3 14 -1
21 -9 7 -8 19 -15 27 -15 7 0 31 -9 53 -20 22 -11 48 -20 60 -20 11 0 20 -5
20 -11 0 -6 6 -9 14 -6 7 3 17 2 22 -3 10 -9 78 -32 109 -36 26 -4 60 -12 60
-14 0 -2 16 -5 90 -19 179 -33 421 -30 595 6 41 8 84 17 95 19 31 5 156 45
190 59 17 7 47 19 68 26 20 7 37 17 37 21 0 4 3 8 8 7 15 -2 52 14 52 22 0 5
3 8 8 7 11 -2 44 13 75 34 15 11 27 16 27 13 0 -4 7 0 15 7 32 29 43 37 47 33
2 -3 18 9 36 25 18 16 45 37 62 47 16 9 30 21 30 25 0 4 4 8 9 8 4 0 32 23 62
50 30 28 57 50 62 50 4 0 12 12 17 26 6 14 14 22 20 19 5 -3 10 -2 10 4 0 6
18 28 40 50 22 22 40 44 40 49 0 5 7 12 15 16 8 3 15 12 15 20 0 8 11 23 25
34 14 11 25 25 25 31 0 7 8 21 18 32 11 10 25 32 33 47 8 15 16 29 19 32 6 5
97 192 110 225 57 142 89 273 116 470 9 65 9 276 -1 340 -3 28 -8 64 -10 80
-5 47 -15 97 -25 130 -5 17 -11 41 -14 55 -11 67 -91 280 -110 292 -6 4 -7 8
-3 8 4 0 2 10 -5 23 -7 12 -13 24 -13 27 -4 16 -31 66 -40 72 -5 4 -6 10 -3
14 4 3 0 13 -8 21 -8 8 -12 19 -9 24 4 5 2 9 -3 9 -8 0 -23 33 -19 43 0 1 -6
13 -13 27 -8 14 -15 27 -16 30 -1 7 -12 34 -39 95 -21 49 -36 98 -34 111 0 4
-3 10 -8 13 -10 6 -70 174 -159 441 -30 91 -58 172 -61 180 -3 8 -7 22 -9 31
-2 9 -8 29 -14 45 -6 16 -11 31 -12 34 0 3 -4 11 -10 18 -6 6 -8 12 -4 12 3 0
-3 21 -13 48 -10 26 -19 50 -20 54 -1 4 -4 15 -6 23 -3 8 -7 22 -10 30 -2 8
-5 19 -6 23 0 4 -5 12 -11 19 -5 7 -7 17 -3 23 3 5 2 10 -3 10 -5 0 -12 12
-15 28 -3 15 -10 38 -15 52 -5 14 -9 28 -8 32 0 4 -8 14 -19 23 -11 9 -13 13
-5 9 9 -4 7 1 -5 14 -90 96 -124 115 -211 118 -78 2 -168 -29 -221 -76 -41
-36 -77 -96 -67 -111 3 -5 1 -9 -4 -9 -5 0 -9 -6 -10 -12 -3 -47 -2 -116 1
-133 4 -18 19 -97 23 -120 1 -5 3 -12 4 -15 1 -3 3 -14 5 -25 13 -74 17 -92
22 -105 3 -8 7 -24 8 -35 1 -11 5 -33 8 -50 13 -63 19 -100 20 -112 0 -7 3
-13 6 -13 3 0 6 -10 7 -22 0 -23 7 -62 19 -108 4 -14 8 -36 9 -50 2 -14 5 -32
8 -40 6 -15 33 -154 43 -215 3 -16 8 -41 11 -55 3 -14 7 -32 8 -40 1 -9 5 -21
9 -27 4 -6 3 -14 -3 -18 -6 -4 -8 -11 -5 -16 4 -5 1 -9 -5 -9 -6 0 -18 -6 -25
-12 -68 -61 -74 -61 -122 9 -24 35 -43 65 -43 68 0 2 -18 28 -40 57 -22 29
-40 58 -40 65 0 6 -4 13 -8 15 -4 2 -28 32 -52 68 -25 36 -47 67 -50 70 -14
14 -70 102 -70 109 0 5 -4 11 -8 13 -12 5 -72 95 -72 108 0 6 -4 9 -9 6 -5 -3
-14 8 -21 24 -7 17 -16 30 -21 30 -5 0 -9 5 -9 10 0 6 -18 35 -40 65 -22 30
-40 58 -40 64 0 5 -4 11 -8 13 -5 2 -41 53 -82 113 -41 61 -77 112 -80 115 -3
3 -11 17 -19 33 -8 15 -18 27 -23 27 -4 0 -8 7 -8 15 0 8 -4 15 -10 15 -5 0
-10 5 -10 10 0 6 -6 18 -12 26 -7 8 -18 20 -23 27 -19 23 -69 102 -66 105 1 2
-7 12 -18 21 -12 10 -21 21 -21 25 0 10 -183 270 -192 274 -4 2 -6 8 -2 13 3
5 0 9 -5 9 -6 0 -11 7 -11 15 0 7 -6 18 -13 22 -6 4 -18 20 -26 35 -8 15 -22
37 -33 47 -10 11 -18 24 -18 28 0 5 -11 21 -25 36 -14 15 -23 27 -20 27 6 0
-6 15 -37 50 -9 10 -14 20 -12 23 10 9 -112 124 -151 142 -38 17 -146 30 -158
19z"/>
<path d="M3388 4832 c-21 -2 -38 -7 -38 -12 0 -5 -8 -11 -18 -14 -25 -8 -56
-65 -58 -106 0 -19 7 -51 17 -71 30 -61 60 -73 207 -84 26 -2 47 -4 47 -5 0
-1 20 -3 44 -5 25 -3 52 -7 60 -11 9 -4 21 -8 28 -10 27 -5 90 -27 122 -41 18
-8 41 -16 49 -17 9 -2 18 -8 20 -14 2 -7 11 -12 21 -12 9 0 27 -7 39 -16 12
-8 22 -12 22 -8 0 4 8 -2 18 -13 9 -11 27 -23 40 -27 12 -4 22 -12 22 -17 0
-5 7 -9 15 -9 8 0 15 -5 15 -12 0 -6 3 -9 6 -6 11 11 203 -173 244 -235 14
-20 29 -37 33 -37 5 0 6 -4 3 -9 -3 -5 1 -11 9 -15 8 -3 15 -12 15 -21 0 -8 3
-15 8 -15 4 0 18 -24 32 -53 14 -28 27 -54 30 -57 11 -10 59 -135 65 -170 4
-19 10 -39 13 -45 7 -11 10 -27 14 -67 1 -16 5 -28 8 -28 3 0 5 -17 5 -38 0
-131 30 -232 70 -232 7 0 15 -5 17 -11 6 -18 87 -20 121 -3 64 33 83 74 81
169 -3 89 -16 205 -30 265 -3 14 -9 43 -14 65 -5 22 -13 52 -19 68 -6 15 -8
27 -5 27 4 0 2 6 -3 13 -6 6 -16 30 -23 52 -17 53 -99 219 -111 223 -5 2 -9
10 -9 18 0 8 -4 20 -10 27 -43 53 -60 76 -60 81 0 19 -191 208 -269 266 -106
79 -280 170 -371 195 -8 2 -46 13 -85 25 -38 11 -86 23 -105 26 -19 3 -46 7
-60 10 -22 4 -118 12 -205 17 -16 1 -47 1 -67 -1z"/>
<path d="M383 1839 c-13 -5 -23 -6 -23 -4 0 2 -13 -9 -30 -25 -16 -16 -30 -34
-30 -40 0 -5 -4 -10 -8 -10 -7 0 -12 -55 -12 -145 0 -5 2 -26 4 -45 3 -19 7
-57 10 -85 3 -27 10 -72 16 -100 6 -27 13 -62 15 -76 15 -95 144 -395 180
-421 6 -4 6 -8 2 -8 -5 0 -1 -7 7 -16 9 -8 30 -35 46 -59 17 -24 52 -66 79
-94 27 -27 46 -52 43 -55 -3 -4 0 -6 7 -6 6 0 27 -15 47 -32 57 -54 74 -68 81
-68 4 0 16 -9 27 -19 43 -40 242 -139 341 -170 39 -13 77 -25 85 -28 8 -3 24
-7 35 -8 11 -2 31 -6 45 -9 25 -7 46 -11 108 -22 63 -10 217 -17 280 -13 29 3
82 49 98 87 18 43 14 97 -10 134 -23 35 -86 59 -166 64 -93 6 -173 19 -195 32
-5 4 -20 8 -33 10 -13 1 -48 14 -78 27 -30 13 -54 21 -54 17 0 -4 -4 -2 -8 3
-4 6 -32 23 -64 38 -54 27 -187 121 -257 182 -51 45 -103 102 -160 175 -28 36
-56 71 -61 78 -6 6 -7 12 -3 12 4 0 4 4 -2 8 -12 8 -38 52 -63 102 -9 19 -21
38 -27 42 -5 4 -7 8 -2 8 4 0 1 13 -7 29 -9 16 -12 31 -9 35 4 3 1 6 -6 6 -7
0 -9 5 -6 10 3 6 2 10 -2 10 -5 0 -10 12 -11 26 -1 15 -7 32 -12 39 -6 7 -11
31 -13 54 -1 22 -5 41 -8 41 -3 0 -6 6 -7 13 0 6 -3 46 -6 87 -3 41 -7 84 -10
95 -2 11 -5 22 -5 25 -2 12 -48 57 -66 64 -30 12 -77 14 -102 5z"/>
<path d="M100 1127 c0 -6 -3 -7 -6 -4 -11 11 -63 -33 -79 -66 -21 -46 -11
-213 20 -337 10 -39 19 -67 24 -75 3 -5 7 -19 8 -29 2 -11 10 -27 17 -35 8 -9
17 -27 21 -41 4 -14 20 -44 36 -68 16 -24 29 -47 29 -53 0 -5 4 -9 8 -9 4 0
15 -12 24 -28 19 -31 135 -150 168 -172 13 -8 35 -24 49 -35 14 -11 40 -27 56
-35 17 -8 32 -18 35 -21 9 -11 164 -73 210 -84 8 -2 36 -8 63 -14 63 -15 203
-24 244 -16 67 12 120 90 108 157 -9 47 -47 97 -85 110 -19 6 -60 13 -90 14
-62 2 -107 9 -165 24 -22 6 -50 13 -61 15 -58 13 -174 83 -249 150 -27 25 -94
113 -106 140 -5 11 -13 27 -18 35 -9 14 -20 45 -21 55 0 3 -6 18 -13 33 -21
39 -36 124 -40 219 -1 29 -5 53 -9 53 -4 0 -5 7 -2 14 9 23 -25 71 -64 92 -37
20 -112 27 -112 11z"/>
</g>
</svg>
